# xmcd
#
# Track frame offsets:
#   150
#   16560
#   33523
#   50683
#   65733
#   91560
#   113203
#   130413
#   163810
#   181295
#
# Disc length: 2732 seconds
#
# Revision: 0
# Processed by: cddbd v1.4PL0 Copyright (c) Steve Scherf et al.
# Submitted via: CD-Datenbank 4.*
#
DISCID=7f0aaa0a
DTITLE=Bernard Allison - The Next Generation
DYEAR=1900
DGENRE=Blues
TTITLE0=Low Down And Dirty
TTITLE1=Master Of Disaster
TTITLE2=Help
TTITLE3=Walkin´
TTITLE4=Baby Child
TTITLE5=Next Generation
TTITLE6=Wonderful Site
TTITLE7=Trav´lin´
TTITLE8=B.A.´S Knocking At Your Door
TTITLE9=Boogie Woogie Boy
EXTD=
EXTT0=
EXTT1=
EXTT2=
EXTT3=
EXTT4=
EXTT5=
EXTT6=
EXTT7=
EXTT8=
EXTT9=
PLAYORDER=
